<?xml version="1.0" standalone="no"?>
<!DOCTYPE svg PUBLIC "-//W3C//DTD SVG 20010904//EN"
 "http://www.w3.org/TR/2001/REC-SVG-20010904/DTD/svg10.dtd">
<svg version="1.0" xmlns="http://www.w3.org/2000/svg"
 width="144.000000pt" height="144.000000pt" viewBox="0 0 144.000000 144.000000"
 preserveAspectRatio="xMidYMid meet">
<metadata>
Created by potrace 1.11, written by Peter Selinger 2001-2013
</metadata>
<g transform="translate(0.000000,144.000000) scale(0.100000,-0.100000)"
fill="#000000" stroke="none">
<path d="M655 1413 c-33 -7 -78 -15 -100 -18 -67 -9 -116 -25 -156 -52 -21
-14 -36 -30 -33 -34 3 -5 2 -9 -3 -8 -18 3 -33 -1 -33 -10 0 -5 10 -7 22 -3
13 3 19 1 15 -6 -4 -5 -21 -8 -38 -5 -19 3 -29 1 -25 -6 3 -5 -2 -12 -12 -15
-10 -4 -30 -18 -43 -32 -18 -19 -20 -27 -10 -33 10 -6 9 -10 -4 -14 -9 -4 -13
-3 -10 3 3 6 -1 7 -10 4 -12 -5 -13 -10 -6 -17 6 -6 11 -16 11 -22 0 -5 -4 -4
-9 4 -7 11 -12 10 -27 -6 -44 -44 -47 -52 -33 -70 11 -15 11 -16 -1 -5 -20 17
-25 15 -38 -13 -16 -35 -15 -40 6 -24 15 13 16 12 3 -3 -7 -10 -17 -16 -21
-13 -5 3 -11 1 -14 -4 -4 -5 -1 -13 4 -16 8 -5 6 -11 -4 -18 -9 -7 -17 -21
-19 -32 -1 -11 -6 -25 -9 -31 -4 -6 -9 -22 -12 -37 -2 -15 -7 -31 -11 -37 -3
-5 0 -10 7 -10 10 0 10 -2 1 -8 -7 -4 -14 -21 -17 -37 -3 -17 -8 -40 -10 -52
-3 -14 0 -23 7 -23 9 0 8 -3 -1 -9 -23 -14 -3 -159 32 -231 42 -87 72 -139
100 -173 60 -74 204 -216 182 -179 -4 6 -2 12 3 12 6 0 11 -7 11 -16 0 -11 6
-14 21 -9 13 5 19 3 15 -3 -7 -12 12 -27 46 -36 14 -3 34 -9 45 -12 15 -5 15
-4 3 5 -8 6 -10 11 -4 11 5 0 15 -5 22 -12 6 -6 17 -13 24 -14 7 -1 29 -5 48
-9 71 -14 119 -14 131 1 12 15 33 9 23 -7 -3 -5 -10 -6 -16 -3 -6 4 -8 2 -5
-4 10 -14 43 -7 39 9 -2 10 0 10 11 0 17 -14 67 -7 78 10 4 6 12 8 18 4 7 -4
18 -1 26 5 8 7 15 10 15 7 0 -4 21 3 46 13 25 11 49 18 54 15 4 -3 11 2 14 11
3 8 11 14 18 13 17 -3 68 22 68 33 0 5 5 6 10 3 6 -3 10 1 10 9 0 10 6 13 15
10 8 -4 15 -1 15 5 0 6 4 10 9 8 18 -4 82 65 76 82 -3 8 -3 12 1 9 12 -13 46
13 41 32 -3 11 1 17 12 16 8 0 16 5 16 12 0 7 5 16 11 20 16 11 57 82 50 89
-3 3 2 12 12 19 9 7 12 14 6 14 -7 0 -15 7 -18 16 -5 14 -4 15 8 5 11 -9 16
-6 24 18 6 16 8 32 5 35 -4 3 -2 6 4 6 9 0 19 41 26 113 2 15 -2 27 -7 27 -6
0 -4 5 4 10 13 8 13 13 2 31 -8 11 -9 18 -4 15 5 -3 12 3 15 14 3 11 1 23 -4
26 -5 3 -7 10 -4 15 4 5 3 19 0 30 -6 17 -9 19 -16 8 -6 -9 -9 -10 -9 -2 0 6
5 15 10 18 8 5 7 37 -4 80 -8 28 -37 85 -44 85 -5 0 -17 7 -28 16 -18 15 -18
15 3 5 35 -18 35 -14 1 49 -20 37 -38 58 -46 55 -7 -3 -10 0 -6 6 6 10 -30 53
-40 47 -2 -2 -8 1 -13 6 -5 5 -3 6 5 2 6 -4 12 -2 12 3 0 6 -3 11 -8 11 -4 0
-20 12 -35 26 -15 14 -36 26 -47 27 -10 1 -17 4 -15 7 5 9 -127 75 -142 72 -7
-2 -13 2 -13 8 0 7 -8 9 -20 5 -11 -3 -20 -2 -20 3 0 5 -6 9 -12 9 -7 1 -26 5
-43 11 -16 5 -40 8 -52 6 -14 -2 -23 1 -23 9 -1 6 -7 1 -16 -13 -14 -23 -14
-23 -9 -2 7 23 -10 31 -18 10 -4 -8 -6 -7 -6 3 -1 23 -43 27 -116 12z m205
-58 c14 -19 14 -19 -2 -6 -10 7 -18 18 -18 24 0 6 1 8 3 6 1 -2 9 -13 17 -24z
m-150 5 c0 -5 -5 -10 -11 -10 -5 0 -7 5 -4 10 3 6 8 10 11 10 2 0 4 -4 4 -10z
m-114 -12 c-10 -6 -22 -6 -26 -2 -5 5 3 10 18 11 22 1 24 0 8 -9z m-39 -13 c4
-4 3 -5 -4 -1 -6 3 -15 1 -18 -5 -4 -5 -13 -8 -21 -5 -8 3 -14 1 -14 -4 0 -5
-7 -6 -17 -3 -11 4 -14 3 -9 -5 4 -7 2 -20 -4 -29 -9 -16 -10 -15 -5 4 5 19 3
22 -12 16 -10 -4 -23 -13 -29 -21 -9 -13 -11 -13 -11 0 0 7 6 19 14 26 7 7 13
11 13 8 0 -3 19 3 41 13 43 20 63 21 76 6z m-159 -56 c-3 -8 -7 -3 -11 10 -4
17 -3 21 5 13 5 -5 8 -16 6 -23z m706 -14 c-5 -13 1 -17 23 -14 3 0 10 -6 15
-15 5 -9 13 -14 19 -11 5 4 9 1 9 -5 0 -7 7 -9 16 -6 8 3 13 2 10 -3 -3 -4 6
-18 19 -31 13 -13 22 -27 18 -33 -3 -6 -1 -7 5 -3 7 4 12 2 12 -4 0 -6 5 -8
12 -4 8 5 9 2 5 -9 -4 -11 -1 -17 9 -17 8 0 12 5 9 10 -9 15 4 12 21 -4 19
-20 19 -21 -21 -22 -26 -1 -36 3 -41 19 -5 16 -8 17 -15 6 -7 -11 -9 -10 -9 5
0 18 -19 39 -85 94 -21 17 -30 20 -41 11 -8 -6 -12 -15 -9 -19 6 -10 -14 -24
-22 -16 -4 3 2 14 11 25 13 14 14 21 5 27 -9 5 -7 11 6 21 24 17 26 16 19 -2z
m-774 -15 c0 -5 -5 -10 -11 -10 -5 0 -7 5 -4 10 3 6 8 10 11 10 2 0 4 -4 4
-10z m464 -80 c-10 -4 -21 -6 -24 -3 -8 7 24 22 34 16 5 -4 1 -10 -10 -13z
m305 -12 c-12 -23 -26 -31 -34 -18 -3 5 1 10 9 10 19 0 21 16 4 23 -7 3 -3 4
9 4 17 -1 20 -5 12 -19z m-49 1 c0 -4 -12 -5 -27 -3 -39 7 -41 13 -4 12 17 -1
31 -5 31 -9z m-386 -35 c20 -20 20 -23 -1 -22 -10 0 -28 -3 -40 -5 -13 -3 -25
-1 -29 4 -4 6 -14 3 -27 -8 -18 -14 -17 -12 2 10 22 24 26 25 40 12 11 -9 21
-11 31 -4 13 8 13 10 0 19 -9 6 -10 10 -3 10 6 0 19 -7 27 -16z m461 7 c3 -5
2 -12 -3 -15 -5 -3 -9 1 -9 9 0 17 3 19 12 6z m-32 -16 c-3 -9 -8 -14 -10 -11
-3 3 -2 9 2 15 9 16 15 13 8 -4z m48 -8 c-10 -9 -11 -8 -5 6 3 10 9 15 12 12
3 -3 0 -11 -7 -18z m63 15 c2 -4 -4 -8 -14 -8 -10 0 -16 4 -14 8 3 4 9 8 14 8
5 0 11 -4 14 -8z m-990 -18 c3 -8 2 -12 -4 -9 -6 3 -10 10 -10 16 0 14 7 11
14 -7z m-24 2 c0 -2 -7 -7 -16 -10 -8 -3 -12 -2 -9 4 6 10 25 14 25 6z m1006
-20 c14 4 16 3 5 -4 -11 -8 -11 -10 0 -15 8 -3 9 -6 3 -6 -7 -1 -20 7 -31 17
-10 9 -14 14 -7 9 6 -4 20 -5 30 -1z m-1003 -21 c-3 -8 -9 -15 -14 -15 -4 0
-6 -8 -3 -17 5 -15 4 -15 -5 -3 -7 10 -6 19 5 31 8 8 11 19 7 24 -5 4 -3 5 4
1 7 -4 10 -13 6 -21z m937 3 c10 -21 10 -21 -3 -6 -8 10 -18 14 -22 10 -5 -4
-5 -1 -1 6 10 17 14 15 26 -10z m107 7 c0 -8 -4 -12 -9 -9 -5 3 -6 10 -3 15 9
13 12 11 12 -6z m68 -14 c-3 -2 1 -14 8 -25 23 -36 28 -56 12 -50 -8 3 -14 9
-13 12 1 4 -1 17 -5 28 -6 16 -13 20 -28 17 -18 -5 -18 -7 -4 -23 19 -21 19
-30 -1 -30 -10 0 -14 6 -10 15 3 8 -2 19 -12 24 -14 8 -13 10 11 16 29 8 37
25 11 25 -8 0 -12 4 -9 10 4 6 13 5 25 -2 11 -7 17 -14 15 -17z m-200 -21 c-2
-4 6 -15 18 -25 14 -13 17 -20 9 -23 -16 -5 -44 17 -36 29 3 5 1 9 -4 9 -5 0
-12 9 -15 19 -4 17 -2 18 13 8 10 -6 17 -14 15 -17z m70 10 c-4 -6 -1 -19 6
-28 10 -13 8 -12 -9 2 -17 15 -19 22 -10 28 17 10 20 10 13 -2z m49 -16 c3 -8
2 -12 -4 -9 -6 3 -10 10 -10 16 0 14 7 11 14 -7z m-1071 -19 c-3 -9 -8 -14
-10 -11 -3 3 -2 9 2 15 9 16 15 13 8 -4z m1057 -15 c0 -5 -5 -10 -11 -10 -5 0
-7 5 -4 10 3 6 8 10 11 10 2 0 4 -4 4 -10z m35 0 c3 -5 1 -10 -4 -10 -6 0 -11
5 -11 10 0 6 2 10 4 10 3 0 8 -4 11 -10z m25 -44 c0 -19 -17 -29 -25 -16 -3 5
-1 10 5 10 6 0 8 5 5 10 -3 6 -1 10 4 10 6 0 11 -6 11 -14z m48 3 c-2 -6 3
-14 10 -16 8 -3 10 1 6 11 -3 9 -2 16 4 16 6 0 9 -7 8 -17 -3 -20 -43 -37 -52
-21 -5 7 -2 8 6 3 10 -6 12 -4 7 7 -3 9 -3 19 0 22 9 9 13 7 11 -5z m76 -7 c3
-5 -1 -9 -9 -9 -8 0 -12 4 -9 9 3 4 7 8 9 8 2 0 6 -4 9 -8z m-29 -32 c3 -5 1
-10 -4 -10 -6 0 -11 5 -11 10 0 6 2 10 4 10 3 0 8 -4 11 -10z m-31 -8 c3 -5
-1 -9 -9 -9 -8 0 -12 4 -9 9 3 4 7 8 9 8 2 0 6 -4 9 -8z m-414 -46 c0 -2 -7
-7 -16 -10 -8 -3 -12 -2 -9 4 6 10 25 14 25 6z m290 -6 c0 -5 -8 -10 -17 -10
-15 0 -16 2 -3 10 19 12 20 12 20 0z m-267 -25 c-3 -9 -8 -14 -10 -11 -3 3 -2
9 2 15 9 16 15 13 8 -4z m414 -47 c-3 -8 -6 -5 -6 6 -1 11 2 17 5 13 3 -3 4
-12 1 -19z m-147 -28 c0 -5 -5 -10 -11 -10 -5 0 -7 5 -4 10 3 6 8 10 11 10 2
0 4 -4 4 -10z m-281 -13 c8 -10 7 -14 -2 -14 -8 0 -14 6 -14 14 0 7 1 13 2 13
2 0 8 -6 14 -13z m-874 -27 c3 -6 -1 -7 -9 -4 -18 7 -21 14 -7 14 6 0 13 -4
16 -10z m1167 -14 c7 4 8 2 4 -4 -4 -6 -13 -9 -21 -6 -8 4 -12 11 -8 17 5 8 8
7 11 -1 2 -7 9 -9 14 -6z m13 -56 c3 -6 -1 -7 -9 -4 -18 7 -21 14 -7 14 6 0
13 -4 16 -10z m131 -7 c-2 -9 -10 -17 -19 -19 -13 -2 -14 1 -4 17 15 23 26 25
23 2z m-156 -46 c0 -5 -4 -5 -10 -2 -5 3 -10 1 -10 -4 0 -6 5 -11 10 -11 17 0
11 -25 -10 -48 -11 -12 -20 -28 -20 -37 0 -8 -3 -14 -7 -14 -21 3 -24 -3 -12
-18 10 -11 10 -14 2 -9 -7 4 -13 2 -13 -3 0 -6 -7 -11 -16 -11 -9 0 -12 -5 -8
-12 5 -7 3 -8 -6 -3 -10 6 -9 11 4 21 10 7 15 17 11 23 -3 6 -2 11 4 11 6 0 8
7 5 15 -4 8 -1 15 6 15 7 0 10 7 6 15 -3 9 1 18 9 21 8 3 11 12 8 21 -4 10 -2
14 4 10 6 -4 9 3 7 18 -1 14 2 23 7 19 5 -3 9 1 9 8 0 9 3 9 10 -2 5 -8 10
-19 10 -23z m104 12 c-3 -5 -10 -7 -15 -3 -5 3 -7 10 -3 15 3 5 10 7 15 3 5
-3 7 -10 3 -15z m96 17 c0 -3 -4 -8 -10 -11 -5 -3 -10 -1 -10 4 0 6 5 11 10
11 6 0 10 -2 10 -4z m-619 -38 c12 -5 15 -15 12 -35 -3 -15 -5 -36 -6 -45 -1
-20 -17 -25 -17 -6 0 6 -3 8 -6 5 -4 -4 -1 -13 6 -22 12 -14 7 -20 -14 -16 -5
1 -6 -5 -2 -14 4 -13 2 -14 -14 -5 -27 14 -44 47 -27 53 9 4 8 8 -3 17 -13 10
-13 11 3 6 9 -3 17 -1 17 3 0 5 15 18 33 30 17 11 27 21 20 21 -6 0 -15 -5
-18 -10 -4 -6 -11 -8 -16 -5 -5 4 -9 0 -9 -7 0 -10 -3 -9 -10 2 -10 16 19 58
29 42 3 -5 13 -11 22 -14z m480 -15 c13 -16 12 -17 -3 -4 -10 7 -18 15 -18 17
0 8 8 3 21 -13z m51 10 c-6 -2 -9 -10 -6 -15 4 -6 2 -8 -4 -4 -5 3 -13 0 -15
-6 -4 -8 -6 -7 -6 4 -1 16 13 26 34 26 6 0 4 -2 -3 -5z m-58 -31 c2 -4 -4 -8
-14 -8 -10 0 -16 4 -14 8 3 4 9 8 14 8 5 0 11 -4 14 -8z m-1006 -72 c-2 -8 -8
-13 -13 -10 -6 3 -9 8 -7 13 1 4 -6 7 -15 7 -14 0 -15 2 -4 9 9 6 10 11 2 15
-6 4 -11 14 -11 23 0 11 8 7 25 -13 14 -16 24 -36 23 -44z m1060 42 c-7 -10
-13 -18 -14 -20 -1 -1 -4 6 -7 17 -3 15 -1 18 11 14 11 -5 13 -3 7 7 -5 9 -4
11 4 6 9 -6 9 -12 -1 -24z m-197 -5 c-6 -8 -7 -18 -3 -22 4 -5 1 -5 -6 -1 -10
6 -10 11 -1 22 6 8 14 14 16 14 3 0 0 -6 -6 -13z m88 -20 c-13 -13 -26 -21
-29 -19 -5 4 38 42 48 42 3 0 -6 -10 -19 -23z m51 -11 c0 -3 -4 -8 -10 -11 -5
-3 -10 -1 -10 4 0 6 5 11 10 11 6 0 10 -2 10 -4z m33 -10 c4 -10 1 -13 -8 -9
-8 3 -12 9 -9 14 7 12 11 11 17 -5z m-188 -5 c3 -5 2 -12 -3 -15 -5 -3 -9 1
-9 9 0 17 3 19 12 6z m145 -20 c3 -2 -3 -1 -12 2 -12 4 -18 1 -18 -7 0 -7 -6
-19 -13 -25 -10 -8 -14 -7 -14 4 0 8 5 15 10 15 5 0 7 6 4 14 -11 29 9 27 43
-3z m-980 9 c-13 -8 -12 -10 3 -10 10 0 15 -4 12 -10 -3 -5 -1 -10 5 -10 6 0
8 -4 5 -10 -3 -5 -1 -10 4 -10 6 0 11 -5 11 -12 0 -6 -7 -4 -18 5 -10 10 -22
15 -25 12 -4 -3 -5 -2 -2 2 3 3 0 12 -6 19 -12 15 -4 34 14 34 7 0 6 -4 -3
-10z m564 -2 c-3 -4 -9 -8 -15 -8 -5 0 -9 4 -9 8 0 5 7 9 15 9 8 0 12 -4 9 -9z
m-594 -15 c0 -3 -7 -2 -16 1 -12 5 -14 1 -9 -17 5 -19 4 -20 -5 -4 -13 21 -5
38 15 30 8 -3 15 -7 15 -10z m-70 -6 c0 -7 -9 -18 -21 -25 -17 -11 -20 -11
-13 0 5 7 9 16 10 21 3 15 4 17 14 17 6 0 10 -6 10 -13z m995 -7 c3 -5 1 -10
-4 -10 -6 0 -11 5 -11 10 0 6 2 10 4 10 3 0 8 -4 11 -10z m94 -22 c14 -23 13
-23 -7 -5 -26 24 -41 3 -16 -24 13 -15 19 -16 26 -7 4 7 8 8 8 2 0 -5 -8 -19
-18 -30 -24 -25 -26 -35 -10 -46 9 -6 8 -8 -7 -6 -25 4 -44 28 -37 47 4 11 1
13 -12 8 -13 -5 -17 -3 -13 7 3 8 -1 20 -9 26 -8 7 -14 18 -13 24 0 7 2 6 6
-1 2 -7 9 -13 14 -13 6 0 7 5 4 10 -10 16 1 11 16 -7 10 -11 10 -14 2 -9 -18
10 -16 -9 2 -24 8 -7 14 -19 13 -28 -2 -8 2 -17 9 -19 8 -3 11 3 8 17 -2 11 0
18 5 15 5 -3 11 -1 15 5 3 5 -3 15 -15 22 -23 15 -25 29 -8 46 17 17 21 15 37
-10z m-1084 -8 c-3 -5 -12 -10 -18 -10 -7 0 -6 4 3 10 19 12 23 12 15 0z m29
-6 c3 -8 2 -12 -4 -9 -6 3 -10 10 -10 16 0 14 7 11 14 -7z m926 -9 c-12 -14
-7 -20 15 -15 5 1 6 -2 2 -6 -4 -4 -15 -9 -23 -10 -9 -1 -13 0 -10 3 3 4 1 12
-5 20 -9 10 -8 13 5 13 9 0 16 5 16 12 0 6 3 8 6 5 4 -4 1 -13 -6 -22z m-440
0 c0 -8 -4 -15 -10 -15 -5 0 -7 7 -4 15 4 8 8 15 10 15 2 0 4 -7 4 -15z m-443
-1 c-3 -3 -12 -4 -19 -1 -8 3 -5 6 6 6 11 1 17 -2 13 -5z m23 -24 c0 -5 -5
-10 -11 -10 -5 0 -7 5 -4 10 3 6 8 10 11 10 2 0 4 -4 4 -10z m817 -10 c-1 -21
-10 -18 -13 5 -1 8 2 15 6 15 5 0 8 -9 7 -20z m-738 -3 c8 -10 7 -14 -2 -14
-8 0 -14 6 -14 14 0 7 1 13 2 13 2 0 8 -6 14 -13z m797 -39 c4 -6 3 -8 -4 -4
-5 3 -13 1 -15 -4 -3 -6 -4 -5 -3 2 2 7 -4 19 -13 26 -14 11 -13 12 6 2 12 -5
25 -15 29 -22z m34 13 c0 -3 -5 -13 -11 -21 -9 -13 -10 -13 -6 0 2 8 -3 20
-12 27 -14 10 -13 11 7 6 12 -3 22 -8 22 -12z m-880 5 c0 -2 -7 -7 -16 -10 -8
-3 -12 -2 -9 4 6 10 25 14 25 6z m100 -11 c0 -2 -6 -8 -13 -14 -10 -8 -14 -7
-14 2 0 8 6 14 14 14 7 0 13 -1 13 -2z m656 -6 c3 -6 15 -9 25 -6 10 3 22 0
26 -5 4 -7 1 -8 -7 -3 -9 5 -11 1 -6 -16 3 -13 3 -18 0 -11 -3 6 -11 9 -17 5
-7 -3 -9 -2 -4 2 4 5 -5 17 -20 27 -16 10 -23 18 -16 18 6 0 15 -5 19 -11z
m-765 -22 c-10 -9 -11 -8 -5 6 3 10 9 15 12 12 3 -3 0 -11 -7 -18z m44 9 c19
8 27 -12 11 -26 -12 -9 -17 -7 -25 9 -6 11 -11 23 -10 28 0 4 3 3 5 -4 3 -7
11 -10 19 -7z m-85 -6 c0 -5 -2 -10 -4 -10 -3 0 -8 5 -11 10 -3 6 -1 10 4 10
6 0 11 -4 11 -10z m941 -12 c-4 -12 -14 -24 -22 -26 -11 -3 -11 -1 1 7 8 6 11
11 6 11 -5 0 -3 7 4 15 17 21 21 19 11 -7z m-921 -8 c0 -11 -4 -20 -9 -20 -5
0 -7 9 -4 20 3 11 7 20 9 20 2 0 4 -9 4 -20z m877 -7 c-4 -3 -2 -12 3 -18 8
-9 6 -15 -6 -19 -9 -4 -19 -4 -22 -1 -3 3 0 5 7 5 8 0 10 7 6 20 -4 13 -2 20
6 20 7 0 9 -3 6 -7z m-841 -22 c0 -16 -3 -17 -14 -9 -12 10 -7 19 13 28 1 0 1
-9 1 -19z m144 15 c0 -2 -7 -7 -16 -10 -8 -3 -12 -2 -9 4 6 10 25 14 25 6z
m466 -59 c8 3 14 3 14 0 0 -14 -30 -14 -41 1 -11 14 -11 15 0 5 7 -6 20 -9 27
-6z m-245 -34 c13 -16 12 -17 -3 -4 -12 9 -18 10 -18 2 0 -6 -5 -11 -11 -11
-8 0 -8 5 1 15 15 19 15 19 31 -2z m232 -8 c4 -8 3 -16 -1 -19 -4 -3 -9 4 -9
15 -2 23 3 25 10 4z m-253 -56 c0 -5 -4 -9 -8 -9 -5 0 -9 7 -9 15 0 8 4 12 9
9 4 -3 8 -9 8 -15z m39 -23 c-3 -3 -11 5 -18 17 -13 21 -12 21 5 5 10 -10 16
-20 13 -22z"/>
<path d="M330 279 c0 -5 5 -7 10 -4 6 3 10 8 10 11 0 2 -4 4 -10 4 -5 0 -10
-5 -10 -11z"/>
</g>
</svg>
